<?xml version="1.0" standalone="no"?>
<!DOCTYPE svg PUBLIC "-//W3C//DTD SVG 20010904//EN"
 "http://www.w3.org/TR/2001/REC-SVG-20010904/DTD/svg10.dtd">
<svg version="1.0" xmlns="http://www.w3.org/2000/svg"
 width="750.000000pt" height="226.000000pt" viewBox="0 0 750.000000 226.000000"
 preserveAspectRatio="xMidYMid meet">

<g transform="translate(0.000000,226.000000) scale(0.100000,-0.100000)"
fill="#000000" stroke="none">
<path d="M4545 2164 c-136 -30 -273 -100 -377 -193 -108 -96 -209 -273 -244
-426 -27 -115 -24 -321 5 -430 105 -394 443 -635 855 -612 342 19 621 239 726
572 27 86 41 315 20 340 -11 13 -71 15 -444 15 -323 0 -435 -3 -444 -12 -7 -7
-12 -45 -12 -98 0 -128 -23 -120 333 -120 163 0 297 -3 297 -6 0 -3 -7 -34
-16 -68 -63 -246 -287 -401 -550 -382 -317 23 -524 258 -524 596 0 370 256
622 604 597 174 -13 308 -91 392 -228 l35 -59 134 0 c125 0 135 1 145 20 24
44 -103 241 -214 331 -69 57 -211 130 -301 154 -87 24 -329 29 -420 9z"/>
<path d="M142 2148 c-9 -9 -12 -202 -12 -808 0 -759 1 -798 18 -813 24 -22
213 -25 231 -4 7 9 12 116 13 328 l3 314 101 3 102 3 193 -331 192 -330 132 0
c193 0 194 -20 -17 331 -93 156 -179 299 -190 317 -19 31 -19 32 -1 38 78 25
166 79 216 134 92 99 126 192 127 342 0 145 -43 251 -142 345 -66 62 -135 98
-236 124 -67 17 -112 19 -397 19 -236 0 -324 -3 -333 -12z m623 -219 c77 -14
126 -40 163 -85 41 -50 55 -108 50 -204 -4 -66 -10 -87 -34 -127 -62 -101
-130 -123 -376 -123 l-178 0 0 275 0 275 158 0 c87 0 185 -5 217 -11z"/>
<path d="M5722 2138 c-9 -9 -12 -191 -12 -803 0 -754 1 -793 18 -808 15 -14
40 -17 118 -17 65 0 104 4 112 12 9 9 12 142 12 537 0 288 3 521 7 517 4 -4
114 -244 243 -534 l235 -527 91 -3 91 -3 211 473 c116 260 224 500 239 533
l28 60 3 -514 c2 -461 4 -517 19 -533 13 -15 32 -18 118 -18 65 0 105 4 113
12 17 17 17 1599 0 1616 -8 8 -52 12 -133 12 l-120 0 -280 -626 c-154 -344
-283 -627 -286 -629 -3 -2 -132 278 -286 623 l-280 627 -124 3 c-88 2 -128 -1
-137 -10z"/>
<path d="M1854 1820 c-114 -30 -190 -74 -274 -159 -133 -134 -184 -268 -184
-486 0 -224 51 -362 184 -496 130 -133 262 -184 470 -182 107 0 137 4 206 27
152 49 284 162 349 298 59 122 53 128 -109 128 l-121 0 -29 -55 c-67 -128
-213 -193 -372 -165 -167 28 -272 132 -308 303 l-6 27 498 0 499 0 7 46 c25
185 -23 377 -127 513 -75 97 -209 180 -335 207 -95 20 -261 17 -348 -6z m347
-242 c30 -14 71 -40 92 -57 40 -36 92 -134 102 -193 l6 -38 -366 0 c-417 0
-383 -9 -344 94 34 93 126 181 222 212 68 23 221 13 288 -18z"/>
<path d="M3120 1825 c-129 -36 -232 -111 -285 -207 -28 -49 -30 -60 -30 -158
0 -98 2 -109 30 -159 60 -108 150 -164 365 -226 193 -56 271 -86 304 -116 27
-23 31 -34 31 -76 0 -97 -79 -156 -214 -157 -108 -1 -166 18 -223 75 -37 37
-48 56 -53 93 l-7 46 -118 0 c-104 0 -119 -2 -135 -20 -17 -19 -17 -23 -1 -87
53 -216 288 -357 567 -339 267 17 443 170 443 386 0 97 -27 164 -90 228 -67
66 -132 97 -349 162 -240 72 -284 101 -293 190 -4 47 -3 52 35 89 49 49 103
65 205 59 63 -4 86 -10 125 -34 52 -32 93 -96 93 -146 l0 -29 128 3 127 3 3
38 c5 53 -23 143 -64 205 -43 65 -133 133 -216 162 -83 30 -294 38 -378 15z"/>
<path d="M1857 434 c-13 -13 -7 -52 9 -58 22 -9 46 13 42 38 -3 21 -37 34 -51
20z"/>
<path d="M4880 275 l0 -145 30 0 30 0 0 74 c0 83 13 106 49 86 18 -9 21 -20
21 -85 0 -73 1 -75 25 -75 25 0 25 1 25 90 0 77 -3 93 -20 110 -22 22 -51 26
-81 10 -17 -10 -19 -7 -19 35 0 43 -1 45 -30 45 l-30 0 0 -145z"/>
<path d="M150 265 l0 -135 30 0 30 0 0 78 1 77 25 -77 c22 -68 28 -78 48 -78
20 0 26 10 47 78 l24 77 3 -77 c3 -75 4 -78 27 -78 l25 0 0 136 0 135 -31 -3
c-30 -3 -33 -8 -63 -92 l-32 -89 -33 92 c-33 91 -33 91 -67 91 l-34 0 0 -135z"/>
<path d="M569 324 c-20 -21 -24 -36 -24 -84 0 -48 4 -63 24 -84 26 -27 59 -33
92 -16 13 7 19 7 19 0 0 -5 11 -10 25 -10 l25 0 0 110 0 110 -25 0 c-14 0 -25
-5 -25 -10 0 -7 -6 -7 -19 0 -33 17 -66 11 -92 -16z m109 -82 c4 -38 -30 -67
-60 -51 -25 13 -25 84 0 98 25 14 56 -10 60 -47z"/>
<path d="M880 240 l0 -110 30 0 30 0 0 74 c0 83 13 106 49 86 18 -9 21 -20 21
-85 0 -73 1 -75 25 -75 25 0 25 1 25 90 0 77 -3 93 -20 110 -22 22 -51 26 -81
10 -13 -7 -19 -7 -19 0 0 5 -13 10 -30 10 l-30 0 0 -110z"/>
<path d="M1219 324 c-20 -21 -24 -36 -24 -84 0 -48 4 -63 24 -84 26 -27 59
-33 92 -16 13 7 19 7 19 0 0 -5 11 -10 25 -10 l25 0 0 110 0 110 -25 0 c-14 0
-25 -5 -25 -10 0 -7 -6 -7 -19 0 -33 17 -66 11 -92 -16z m109 -82 c4 -38 -30
-67 -60 -51 -25 13 -25 84 0 98 25 14 56 -10 60 -47z"/>
<path d="M1549 324 c-20 -21 -24 -36 -24 -84 0 -48 4 -63 24 -84 26 -27 59
-33 92 -16 16 9 19 7 19 -13 0 -43 -44 -63 -70 -32 -18 22 -60 20 -60 -3 0
-27 42 -62 83 -69 31 -5 40 -1 67 25 l30 30 0 136 0 136 -25 0 c-14 0 -25 -5
-25 -10 0 -7 -6 -7 -19 0 -33 17 -66 11 -92 -16z m109 -82 c4 -38 -30 -67 -60
-51 -25 13 -25 84 0 98 25 14 56 -10 60 -47z"/>
<path d="M1850 240 l0 -110 30 0 30 0 0 110 0 110 -30 0 -30 0 0 -110z"/>
<path d="M2050 240 l0 -110 30 0 30 0 0 74 c0 83 13 106 49 86 18 -9 21 -20
21 -85 0 -73 1 -75 25 -75 25 0 25 1 25 90 0 77 -3 93 -20 110 -22 22 -51 26
-81 10 -13 -7 -19 -7 -19 0 0 5 -13 10 -30 10 l-30 0 0 -110z"/>
<path d="M2399 324 c-20 -21 -24 -36 -24 -84 0 -48 4 -63 24 -84 26 -27 59
-33 92 -16 16 9 19 7 19 -13 0 -43 -44 -63 -70 -32 -18 22 -60 20 -60 -3 0
-27 42 -62 83 -69 31 -5 40 -1 67 25 l30 30 0 136 0 136 -25 0 c-14 0 -25 -5
-25 -10 0 -7 -6 -7 -19 0 -33 17 -66 11 -92 -16z m109 -82 c4 -38 -30 -67 -60
-51 -25 13 -25 84 0 98 25 14 56 -10 60 -47z"/>
<path d="M2870 240 l0 -110 30 0 29 0 3 73 c3 66 5 72 26 75 18 3 22 10 22 38
0 38 -5 41 -32 17 -17 -15 -18 -15 -18 0 0 12 -9 17 -30 17 l-30 0 0 -110z"/>
<path d="M3143 326 c-25 -22 -28 -31 -28 -86 0 -55 3 -64 28 -86 39 -33 90
-32 122 2 14 15 25 31 25 35 0 13 -54 11 -67 -2 -14 -14 -53 -2 -53 17 0 11
15 14 60 14 l60 0 0 39 c0 81 -85 120 -147 67z m85 -38 c20 -20 14 -28 -23
-28 -24 0 -35 5 -35 14 0 24 39 33 58 14z"/>
<path d="M3442 334 c-18 -12 -22 -24 -20 -52 3 -36 6 -39 77 -72 26 -12 24
-30 -3 -30 -14 0 -26 5 -26 10 0 6 -13 10 -30 10 -36 0 -38 -13 -5 -45 47 -48
135 -22 135 39 0 31 -20 51 -65 66 -19 6 -35 18 -35 26 0 16 36 19 45 4 8 -12
55 -13 55 -1 0 4 -9 20 -21 35 -24 31 -72 35 -107 10z"/>
<path d="M3733 326 c-25 -22 -28 -31 -28 -86 0 -55 3 -64 28 -86 39 -33 90
-32 122 2 14 15 25 31 25 35 0 13 -54 11 -67 -2 -14 -14 -53 -2 -53 17 0 11
15 14 60 14 l60 0 0 39 c0 81 -85 120 -147 67z m85 -38 c20 -20 14 -28 -23
-28 -24 0 -35 5 -35 14 0 24 39 33 58 14z"/>
<path d="M4029 324 c-20 -21 -24 -36 -24 -84 0 -48 4 -63 24 -84 26 -27 59
-33 92 -16 13 7 19 7 19 0 0 -5 11 -10 25 -10 l25 0 0 110 0 110 -25 0 c-14 0
-25 -5 -25 -10 0 -7 -6 -7 -19 0 -33 17 -66 11 -92 -16z m109 -82 c4 -38 -30
-67 -60 -51 -25 13 -25 84 0 98 25 14 56 -10 60 -47z"/>
<path d="M4340 240 l0 -110 30 0 29 0 3 73 c3 66 5 72 26 75 18 3 22 10 22 38
0 38 -5 41 -32 17 -17 -15 -18 -15 -18 0 0 12 -9 17 -30 17 l-30 0 0 -110z"/>
<path d="M4603 326 c-25 -22 -28 -31 -28 -86 0 -55 3 -64 28 -86 27 -23 68
-31 102 -18 14 6 45 53 45 69 0 12 -55 4 -72 -11 -25 -24 -48 -2 -48 46 0 48
23 70 48 46 17 -15 72 -23 72 -11 0 16 -31 63 -45 69 -34 13 -75 5 -102 -18z"/>
<path d="M5233 326 c-25 -22 -28 -31 -28 -86 0 -55 3 -64 28 -86 39 -33 90
-32 122 2 14 15 25 31 25 35 0 13 -54 11 -67 -2 -14 -14 -53 -2 -53 17 0 11
15 14 60 14 l60 0 0 39 c0 81 -85 120 -147 67z m85 -38 c20 -20 14 -28 -23
-28 -24 0 -35 5 -35 14 0 24 39 33 58 14z"/>
<path d="M5510 240 l0 -110 30 0 29 0 3 73 c3 66 5 72 26 75 18 3 22 10 22 38
0 38 -5 41 -32 17 -17 -15 -18 -15 -18 0 0 12 -9 17 -30 17 l-30 0 0 -110z"/>
<path d="M5949 324 c-20 -21 -24 -36 -24 -84 0 -48 4 -63 24 -84 26 -27 59
-33 92 -16 16 9 19 7 19 -13 0 -43 -44 -63 -70 -32 -18 22 -60 20 -60 -3 0
-27 42 -62 83 -69 31 -5 40 -1 67 25 l30 30 0 136 0 136 -25 0 c-14 0 -25 -5
-25 -10 0 -7 -6 -7 -19 0 -33 17 -66 11 -92 -16z m109 -82 c4 -38 -30 -67 -60
-51 -25 13 -25 84 0 98 25 14 56 -10 60 -47z"/>
<path d="M6250 240 l0 -110 30 0 29 0 3 73 c3 66 5 72 26 75 18 3 22 10 22 38
0 38 -5 41 -32 17 -17 -15 -18 -15 -18 0 0 12 -9 17 -30 17 l-30 0 0 -110z"/>
<path d="M6537 339 c-24 -14 -47 -62 -47 -99 0 -98 96 -146 161 -81 25 25 29
37 29 81 0 44 -4 56 -29 81 -31 31 -79 38 -114 18z m84 -75 c10 -27 -3 -69
-23 -77 -28 -10 -48 13 -48 53 0 60 50 77 71 24z"/>
<path d="M6810 266 c0 -69 4 -88 21 -110 22 -28 65 -35 88 -14 11 10 14 10 18
1 3 -7 16 -13 29 -13 24 0 24 0 24 110 l0 110 -25 0 c-24 0 -25 -2 -25 -69 0
-67 -14 -101 -40 -101 -22 0 -40 47 -40 107 0 61 -1 63 -25 63 -25 0 -25 -1
-25 -84z"/>
<path d="M7130 190 l0 -160 30 0 30 0 0 61 c0 52 2 60 14 50 25 -21 77 -9 99
21 28 38 28 118 0 156 -22 30 -61 39 -93 22 -13 -7 -20 -7 -20 0 0 5 -13 10
-30 10 l-30 0 0 -160z m138 52 c4 -38 -30 -67 -60 -51 -23 12 -24 71 -2 94 14
14 19 14 38 2 12 -8 22 -27 24 -45z"/>
</g>
</svg>
